<svg xmlns="http://www.w3.org/2000/svg" xmlns:ev="http://www.w3.org/2001/xml-events" xmlns:xlink="http://www.w3.org/1999/xlink" width="1206.989" height="689.964" class="st17" color-interpolation-filters="sRGB" viewBox="0 0 905.244 517.472" xml:space="preserve"><style type="text/css">.st1{fill:#fff;stroke-linecap:round;stroke-linejoin:round;stroke-width:2}.st1,.st2{stroke:#fdbf01}.st2,.st3{stroke-linecap:round;stroke-linejoin:round;stroke-width:2}.st2{fill:#ffc}.st3{fill:#f2f2f2;stroke:#a5a5a5}.st4{fill:#5c5c5c;font-family:Calibri;font-size:1.5em}.st5{font-size:1em}.st6{fill:#2b91af;font-family:Cascadia Mono;font-size:.527771em}.st7{fill:#5c5c5c;font-family:Calibri;font-size:.833336em}.st8{font-size:1em;text-decoration:underline}.st9{font-size:.899997em}.st10,.st11{stroke:#a5a5a5}.st10{marker-end:url(#mrkr4-30);stroke-linecap:round;stroke-linejoin:round;stroke-width:1}.st11{fill:#a5a5a5;fill-opacity:1;stroke-opacity:1;stroke-width:.28409090909091}.st12{fill:#5c5c5c;font-family:Calibri;font-size:.75em}.st13{fill:none;stroke:none;stroke-linecap:round;stroke-linejoin:round;stroke-width:2}.st14{fill:#8d6b01;font-family:Calibri;font-size:1.00001em;font-stretch:semi-expanded;font-weight:700}.st15,.st16{font-size:.83333em;font-weight:400}.st16{fill:#5c5c5c;font-stretch:normal}.st17{fill:none;fill-rule:evenodd;font-size:12px;overflow:visible;stroke-linecap:square;stroke-miterlimit:3}</style><defs id="Markers"><g id="lend4"><path d="M 2 1 L 0 0 L 2 -1 L 2 1" style="stroke:none"/></g><marker id="mrkr4-30" class="st11" markerUnits="strokeWidth" orient="auto" overflow="visible" refX="-7.04"><use transform="scale(-3.52,-3.52)" xlink:href="#lend4"/></marker></defs><g><title>Component Interaction</title><g id="group1-1" transform="translate(19,-307.033)"><title>Обычный.2</title><g id="group2-2"><title>Лист.2</title><g id="shape3-3" transform="translate(2.83465,2.83465)"><title>Лист.3</title></g><g id="shape2-5"><path d="M0 517.47 L432.7 517.47 L865.41 517.47 L865.41 418.16 L432.7 418.16 L0 418.16 L0 517.47 Z" class="st1"/></g></g></g><g id="group4-7" transform="translate(19,-20.8346)"><title>Обычный.45</title><g id="group5-8"><title>Лист.5</title><g id="shape6-9" transform="translate(2.83465,2.83465)"><title>Лист.6</title></g><g id="shape5-11"><path d="M0 517.47 L432.7 517.47 L865.41 517.47 L865.41 204.46 L432.7 204.46 L0 204.46 L0 517.47 Z" class="st2"/></g></g></g><g id="shape7-13" transform="translate(297.638,-413.433)"><title>Прямоугольник</title><desc>Component Interaction IComponentInteraction</desc><rect width="146.835" height="85.039" x="0" y="432.433" class="st3"/><text x="30.26" y="458.75" class="st4">Component <tspan x="33.12" class="st5" dy="1.2em">Interaction</tspan><tspan x="14.97" class="st6" dy="2.274em">IComponentInteraction</tspan></text></g><g id="shape8-18" transform="translate(35.1496,-341.929)"><title>Прямоугольник.2</title><desc>RespondAsync RespondWithFileAsync RespondWithFilesAsync Creat...</desc><rect width="129.26" height="51.449" x="0" y="466.024" class="st3"/><text x="35.1" y="476.75" class="st7"><tspan class="st8">RespondAsync</tspan><tspan x="18.12" class="st8" dy="1.2em">RespondWithFileAsync</tspan><tspan x="16.17" class="st8" dy="1.2em">RespondWithFilesAsync</tspan><tspan x="4.18" class="st9" dy="1.333em">Creates a new response message</tspan></text></g><g id="shape9-25" transform="translate(297.638,-455.953)"><title>Динамическая соединительная линия</title><path d="M0 517.47 L-197.86 517.47 L-197.86 573.01" class="st10"/></g><g id="shape10-31" transform="translate(314.135,-341.929)"><title>Прямоугольник.4</title><desc>DeferAsync Shows a loading animation on the component</desc><rect width="113.386" height="51.449" x="0" y="466.024" class="st3"/><text x="33.52" y="483.35" class="st7"><tspan class="st8">DeferAsync</tspan><tspan x="7.68" class="st9" dy="1.233em">Shows a loading animation </tspan><tspan x="22.73" class="st9" dy="1.3em">on the component</tspan></text></g><g id="shape11-37" transform="translate(378.17,-413.433)"><title>Динамическая соединительная линия.5</title><path d="M-6.83 517.47 L-7.34 517.47 L-7.34 530.49" class="st10"/></g><g id="shape12-42" transform="translate(238.819,-96.2362)"><title>Прямоугольник.6</title><desc>FollowupAsync FollowupWithFileAsync FollowupWithFilesAsync Se...</desc><rect width="131.811" height="51.449" x="0" y="466.024" class="st3"/><text x="35.36" y="476.75" class="st7"><tspan class="st8">FollowupAsync</tspan><tspan x="18.38" class="st8" dy="1.2em">FollowupWithFileAsync</tspan><tspan x="16.42" class="st8" dy="1.2em">FollowupWithFilesAsync</tspan><tspan x="17.91" class="st9" dy="1.333em">Sends a followup message</tspan></text></g><g id="shape13-49" transform="translate(101.339,-272.268)"><title>Прямоугольник.7</title><desc>ModifyOriginalResponseAsync Modifies the response message</desc><rect width="131.811" height="51.449" x="0" y="466.024" class="st3"/><text x="4.21" y="489.35" class="st7"><tspan class="st8">ModifyOriginalResponseAsync</tspan><tspan x="8.19" class="st9" dy="1.233em">Modifies the response message</tspan></text></g><g id="shape14-54" transform="translate(101.339,-154.913)"><title>Прямоугольник.8</title><desc>GetOriginalResponseAsync Gets the response message</desc><rect width="131.811" height="51.449" x="0" y="466.024" class="st3"/><text x="11.37" y="488.75" class="st7"><tspan class="st8">GetOriginalResponseAsync</tspan><tspan x="15.86" class="st9" dy="1.333em">Gets the response message</tspan></text></g><g id="shape15-59" transform="translate(101.339,-213.591)"><title>Прямоугольник.9</title><desc>DeleteOriginalResponseAsync Deletes the response message</desc><rect width="131.811" height="51.449" x="0" y="466.024" class="st3"/><text x="5.33" y="488.75" class="st7"><tspan class="st8">DeleteOriginalResponseAsync</tspan><tspan x="10.42" class="st9" dy="1.333em">Deletes the response message</tspan></text></g><g id="shape16-64" transform="translate(99.7795,-341.929)"><title>Динамическая соединительная линия.15</title><path d="M0 517.47 L-14.74 517.47 L-14.74 737.44 L132 737.44" class="st10"/></g><g id="shape17-69" transform="translate(93.4724,-341.929)"><title>Динамическая соединительная линия.16</title><path d="M6.31 517.47 L-8.43 517.47 L-8.43 561.41 L0.83 561.41" class="st10"/></g><g id="shape18-74" transform="translate(93.4724,-341.929)"><title>Динамическая соединительная линия.17</title><path d="M6.31 517.47 L-8.43 517.47 L-8.43 620.09 L0.83 620.09" class="st10"/></g><g id="shape19-79" transform="translate(93.4724,-341.929)"><title>Динамическая соединительная линия.18</title><path d="M6.31 517.47 L-8.43 517.47 L-8.43 678.76 L0.83 678.76" class="st10"/></g><g id="shape23-84" transform="translate(585.75,-341.929)"><title>Прямоугольник.22</title><desc>RespondWithModalAsync Responds with a modal</desc><rect width="113.386" height="51.449" x="0" y="466.024" class="st3"/><text x="4.19" y="488.75" class="st7"><tspan class="st8">RespondWithModalAsync</tspan><tspan x="14.18" class="st9" dy="1.333em">Responds with a modal</tspan></text></g><g id="shape24-89" transform="translate(444.472,-455.953)"><title>Динамическая соединительная линия.23</title><path d="M0 517.47 L197.97 517.47 L197.97 573.01" class="st10"/></g><g id="shape25-94" transform="translate(136.063,-29.3386)"><title>Прямоугольник.25</title><desc>RestFollowupMessage.DeleteAsync Deletes a followup message</desc><rect width="162.992" height="51.449" x="0" y="466.024" class="st3"/><text x="9.58" y="488.75" class="st7"><tspan class="st8">RestFollowupMessage.DeleteAsync</tspan><tspan x="30.51" class="st9" dy="1.333em">Deletes a followup message</tspan></text></g><g id="shape26-99" transform="translate(304.724,-96.2362)"><title>Динамическая соединительная линия.26</title><path d="M0 517.47 L0 523.81 L-87.17 523.81 L-87.17 525.88" class="st10"/></g><g id="shape27-104" transform="translate(318.898,-29.3386)"><title>Прямоугольник.31</title><desc>RestFollowupMessage.ModifyAsync Modifies a followup message</desc><rect width="162.992" height="51.449" x="0" y="466.024" class="st3"/><text x="15.77" y="489.05" class="st12"><tspan class="st8">RestFollowupMessage.ModifyAsync</tspan><tspan x="28.27" class="st5" dy="1.2em">Modifies a followup message</tspan></text></g><g id="shape28-109" transform="translate(304.724,-96.2362)"><title>Динамическая соединительная линия.32</title><path d="M0 517.47 L0 523.81 L95.67 523.81 L95.67 525.88" class="st10"/></g><g id="shape30-114" transform="translate(714.331,-241.157)"><title>Лист.30</title><desc>Followup methods Can be used in 15 minutes after sending an i...</desc><rect width="161.575" height="80.575" x="0" y="436.898" class="st13"/><text x="55.36" y="448.38" class="st14">Followup methods<tspan x="39.86" class="st15" dy="1.26em">Can be used in 15 minutes </tspan><tspan x="14.57" class="st15" dy="1.2em">after sending an initial response</tspan><tspan x="18.79" class="st16" dy="1.2em">Can be used multiple times during</tspan><tspan x="45.21" class="st16" dy="1.38em"> </tspan><tspan class="st16">interaction token</tspan><tspan class="st16">’</tspan><tspan class="st16">s lifetime</tspan></text></g><g id="shape31-124" transform="translate(708.661,-341.15)"><title>Лист.31</title><desc>Initial Response methods Has to be executed in 3 seconds afte...</desc><rect width="167.244" height="56.693" x="0" y="460.78" class="st13"/><text x="24.85" y="473.53" class="st14">Initial Response methods<tspan x="20.12" class="st15" dy="1.26em">Has to be executed in 3 seconds </tspan><tspan x="29.82" class="st15" dy="1.2em">after receiving the interaction</tspan><tspan x="9.65" class="st16" dy="1.38em">Can be used only ones per interaction</tspan></text></g><g id="shape32-130" transform="translate(178.327,-341.929)"><title>Прямоугольник.32</title><desc>DeferLoadingAsync Creates a new “Bot is thinking” message</desc><rect width="113.386" height="51.449" x="0" y="466.024" class="st3"/><text x="17.63" y="483.35" class="st7"><tspan class="st8">DeferLoadingAsync</tspan><tspan x="17.78" class="st9" dy="1.233em">Creates a new </tspan><tspan class="st9">“</tspan><tspan class="st9">Bot is </tspan><tspan x="23.1" class="st9" dy="1.3em">thinking</tspan><tspan class="st9">” </tspan><tspan class="st9">message</tspan></text></g><g id="shape33-140" transform="translate(297.638,-455.953)"><title>Динамическая соединительная линия.33</title><path d="M0 517.47 L-62.62 517.47 L-62.62 573.01" class="st10"/></g><g id="shape34-145" transform="translate(241.172,-341.929)"><title>Динамическая соединительная линия.34</title><path d="M-6.15 517.47 L6.86 517.47 L6.86 561.41 L-0.98 561.41" class="st10"/></g><g id="shape35-150" transform="translate(241.172,-341.929)"><title>Динамическая соединительная линия.35</title><path d="M-6.15 517.47 L6.86 517.47 L6.86 620.09 L-0.98 620.09" class="st10"/></g><g id="shape36-155" transform="translate(241.172,-341.929)"><title>Динамическая соединительная линия.36</title><path d="M-6.15 517.47 L6.86 517.47 L6.86 678.76 L-0.98 678.76" class="st10"/></g><g id="shape37-160" transform="translate(233.858,-341.929)"><title>Динамическая соединительная линия.37</title><path d="M0 517.47 L14.17 517.47 L14.17 699.58 L42.52 699.58 L42.52 704.68" class="st10"/></g><g id="shape38-165" transform="translate(449.943,-341.929)"><title>Прямоугольник.38</title><desc>UpdateAsync Modifies the message the component is attached to</desc><rect width="113.386" height="51.449" x="0" y="466.024" class="st3"/><text x="29.82" y="483.95" class="st7"><tspan class="st8">UpdateAsync</tspan><tspan x="9.53" class="st9" dy="1.233em">Modifies the message the </tspan><tspan x="9.69" class="st9" dy="1.2em">component is attached to</tspan></text></g><g id="shape39-171" transform="translate(444.472,-455.953)"><title>Динамическая соединительная линия.39</title><path d="M0 517.47 L62.16 517.47 L62.16 573.01" class="st10"/></g><g id="shape40-176" transform="translate(378.425,-273.26)"><title>Прямоугольник.40</title><desc>ModifyOriginalResponseAsync Modifies the message the componen...</desc><rect width="131.811" height="51.449" x="0" y="466.024" class="st3"/><text x="4.21" y="483.95" class="st7"><tspan class="st8">ModifyOriginalResponseAsync</tspan><tspan x="18.74" class="st9" dy="1.233em">Modifies the message the </tspan><tspan x="18.9" class="st9" dy="1.2em">component is attached to</tspan></text></g><g id="shape41-182" transform="translate(378.425,-155.906)"><title>Прямоугольник.41</title><desc>GetOriginalResponseAsync Gets the message the component is at...</desc><rect width="131.811" height="51.449" x="0" y="466.024" class="st3"/><text x="11.37" y="483.35" class="st7"><tspan class="st8">GetOriginalResponseAsync</tspan><tspan x="25.4" class="st9" dy="1.233em">Gets the message the </tspan><tspan x="18.9" class="st9" dy="1.3em">component is attached to</tspan></text></g><g id="shape42-188" transform="translate(378.425,-214.583)"><title>Прямоугольник.42</title><desc>DeleteOriginalResponseAsync Deletes the message the component...</desc><rect width="131.811" height="51.449" x="0" y="466.024" class="st3"/><text x="5.33" y="483.35" class="st7"><tspan class="st8">DeleteOriginalResponseAsync</tspan><tspan x="20.98" class="st9" dy="1.233em">Deletes the message the </tspan><tspan x="18.9" class="st9" dy="1.3em">component is attached to</tspan></text></g><g id="shape43-194" transform="translate(367.54,-341.929)"><title>Динамическая соединительная линия.43</title><path d="M3.29 517.47 L-6.12 517.47 L-6.12 560.42 L3.85 560.42" class="st10"/></g><g id="shape44-199" transform="translate(367.54,-341.929)"><title>Динамическая соединительная линия.44</title><path d="M3.29 517.47 L-6.12 517.47 L-6.12 619.09 L3.85 619.09" class="st10"/></g><g id="shape45-204" transform="translate(367.54,-341.929)"><title>Динамическая соединительная линия.45</title><path d="M3.29 517.47 L-6.12 517.47 L-6.12 677.77 L3.85 677.77" class="st10"/></g><g id="shape46-209" transform="translate(524.036,-341.929)"><title>Динамическая соединительная линия.46</title><path d="M-0.37 517.47 L-0.37 560.42 L-6.76 560.42" class="st10"/></g><g id="shape47-214" transform="translate(501.349,-341.929)"><title>Динамическая соединительная линия.47</title><path d="M5.29 517.47 L22.31 517.47 L22.31 619.09 L15.93 619.09" class="st10"/></g><g id="shape48-219" transform="translate(501.349,-341.929)"><title>Динамическая соединительная линия.48</title><path d="M5.29 517.47 L22.31 517.47 L22.31 677.77 L15.93 677.77" class="st10"/></g><g id="shape52-224" transform="translate(370.828,-341.929)"><title>Динамическая соединительная линия.52</title><path d="M0 517.47 L-9.41 517.47 L-9.41 699.77 L-38.04 699.77 L-38.04 704.68" class="st10"/></g><g id="shape53-229" transform="translate(506.636,-341.929)"><title>Динамическая соединительная линия.53</title><path d="M0 517.47 L17.03 517.47 L17.03 737.44 L-128.97 737.44" class="st10"/></g><g id="shape54-234" transform="translate(642.443,-341.929)"><title>Динамическая соединительная линия.54</title><path d="M0 517.47 L0 747.43 L-264.77 747.43" class="st10"/></g></g></svg>